<?xml version="1.0" encoding="utf-8"?>
<!-- Generator: Adobe Illustrator 27.4.1, SVG Export Plug-In . SVG Version: 6.00 Build 0)  -->
<svg version="1.1" id="Layer_1" xmlns="http://www.w3.org/2000/svg" xmlns:xlink="http://www.w3.org/1999/xlink" x="0px" y="0px"
	 viewBox="0 0 77.9 77.9" style="enable-background:new 0 0 77.9 77.9;" xml:space="preserve">
<style type="text/css">
	.st0{fill:#00B0F0;stroke:#9C5F00;stroke-miterlimit:10;}
	.st1{fill:#F0C17D;}
	.st2{fill:#E0AF6A;}
	.st3{fill:#FFDBA7;}
	.st4{fill:#9C7217;}
	.st5{fill:#785710;}
	.st6{fill:#FF9C00;}
	.st7{fill:#B87000;}
	.st8{fill:#FFFFFF;}
</style>
<circle class="st0" cx="39" cy="39" r="38.2"/>
<g>
	<path class="st1" d="M48.3,52c0.3,0.9,0.7,1.6,1.1,2.3l0,0C49,53.6,48.6,52.9,48.3,52c-0.8-2.2-0.9-5.5-0.4-7.8l0,0
		C47.5,46.6,47.5,49.9,48.3,52L48.3,52z"/>
	<path class="st1" d="M39,49.3L39,49.3L39,49.3c0.1,0,0.2,0,0.2,0c1.8,0,2.7-0.1,3.7-0.5c1-0.4,1.5-1.4,2.8-2.8
		c1.2-1.1,3.2-2.3,3.7-3.5c0.6-1.5,0.5-3,0.7-5.1l0,0c0.1,0.1,0.3,0.1,0.4,0c0.9-0.3,1.8-2.7,2-3.6c0.3-1.5,1.4-4,1.8-5.8
		c0.2-1,0.1-1.8-0.3-2c-0.2-0.1-0.4-0.2-0.5-0.2c-0.4-0.1-0.8,0.2-1.3,0.7c-0.3,1.7-0.7,3.3-1,4.9c0-3.3-1.6-11.3-2.9-14.6
		c-3.7-1.6-6.3,1.5-9.4,2.7L39,49.3c-1.8,0-2.8,0-3.8-0.4c-1-0.4-1.5-1.4-2.9-2.7c-0.6-0.6-1.5-1.2-2.3-1.9c0.4,2.3,0.4,5.6-0.4,7.8
		c-0.3,0.9-0.7,1.6-1.1,2.2L39,63.4L39,49.3L39,49.3z"/>
	<path class="st2" d="M47.9,44.2c-0.8,0.6-1.6,1.2-2.2,1.8c-1.4,1.3-1.8,2.3-2.8,2.8c-1,0.4-1.9,0.5-3.7,0.5c-0.1,0-0.1,0-0.1,0H39
		v14.1l10.5-9.1c-0.4-0.6-0.8-1.4-1.1-2.3C47.6,49.9,47.5,46.6,47.9,44.2z"/>
	<path class="st3" d="M54.3,28.1c-0.3,1.7-1.4,4.3-1.8,5.8c-0.2,0.9-1.1,3.3-2,3.6c0.9-0.3,1.8-2.7,2-3.6
		C52.9,32.3,54,29.8,54.3,28.1c0.2-1,0.1-1.8-0.3-2c-0.2-0.1-0.4-0.2-0.6-0.2c0.2,0,0.4,0.1,0.5,0.2C54.4,26.3,54.5,27.1,54.3,28.1
		L54.3,28.1z"/>
	<path class="st3" d="M49.4,42.5c-0.5,1.2-2.6,2.4-3.7,3.5c-1.4,1.3-1.8,2.3-2.8,2.8c-1,0.4-1.9,0.5-3.7,0.5c-0.1,0-0.1,0-0.1,0l0,0
		c0,0,0.1,0,0.1,0c1.8,0,2.7-0.1,3.7-0.5c1-0.4,1.5-1.4,2.8-2.8c0.6-0.6,1.5-1.2,2.2-1.8l0,0C48.6,43.7,49.2,43.1,49.4,42.5
		c0.6-1.5,0.5-3,0.7-5.1l0,0C49.9,39.5,50,41.1,49.4,42.5z"/>
	<path class="st3" d="M35.2,48.8c1,0.4,1.9,0.5,3.8,0.4V19.5l0,0c-2.6,1.2-5.7,1.9-9.5,0.2c-1.8,2.1-2.2,10.4-2.1,13.3
		c-0.6-2.3-1.2-4.4-1.6-6.4c-0.8-0.8-1.3-0.9-1.9-0.5c-0.3,0.2-0.4,1-0.3,2c0.3,1.7,1.4,4.3,1.8,5.8c0.2,1,1.4,4.1,2.5,3.5
		c0.3,2.2,0.1,3.8,0.7,5.3c0.2,0.6,0.8,1.1,1.5,1.6c0.8,0.6,1.7,1.2,2.3,1.9C33.7,47.4,34.2,48.4,35.2,48.8L35.2,48.8z"/>
	<path class="st4" d="M44.2,6.6c0.5,0.1,0.9,0.3,1.3,0.5C45.1,6.9,44.6,6.8,44.2,6.6z"/>
	<path class="st4" d="M45.5,7.1c0.4,0.2,0.7,0.3,1.1,0.5C46.3,7.5,45.9,7.3,45.5,7.1z"/>
	<path class="st4" d="M48.5,9c0.2,0.2,0.4,0.4,0.5,0.6C48.9,9.4,48.7,9.2,48.5,9z"/>
	<path class="st4" d="M41.1,6c0.4,0,0.8,0.1,1.1,0.1C41.9,6.1,41.5,6.1,41.1,6z"/>
	<path class="st4" d="M39.2,6c0.5,0,1,0,1.4,0C40.1,6,39.6,6,39.2,6z"/>
	<path class="st4" d="M47.8,8.4c0.2,0.1,0.3,0.3,0.5,0.4C48.2,8.7,48,8.6,47.8,8.4z"/>
	<path class="st4" d="M42.7,6.3c0.4,0.1,0.7,0.2,1.1,0.3C43.5,6.5,43.1,6.4,42.7,6.3z"/>
	<path class="st4" d="M46.9,7.8c0.2,0.1,0.4,0.3,0.6,0.4C47.4,8.1,47.1,7.9,46.9,7.8z"/>
	<path class="st4" d="M29.5,19.7c3.8,1.7,6.9,1,9.5-0.2V6c-3,0.1-6.4,1-9.7,3.5c-5.2,3.9-5.2,9.6-3.5,17.2c0.4,2,1,4.1,1.6,6.4
		C27.3,30.1,27.7,21.8,29.5,19.7L29.5,19.7z"/>
	<path class="st5" d="M39,19.5L39,19.5c3.1-1.1,5.7-4.3,9.4-2.7c1.2,3.4,2.8,11.3,2.9,14.6c0.4-1.6,0.7-3.3,1-4.9
		c1.4-7.1,1.9-14.1-3.2-16.9c-0.1-0.2-0.3-0.4-0.5-0.6c-0.1-0.1-0.1-0.1-0.2-0.2c-0.1-0.1-0.3-0.3-0.5-0.4c-0.1-0.1-0.2-0.1-0.3-0.2
		c-0.2-0.1-0.4-0.3-0.6-0.4c-0.1-0.1-0.2-0.1-0.3-0.2c-0.3-0.2-0.7-0.3-1.1-0.5c0,0,0,0-0.1,0c-0.4-0.2-0.9-0.3-1.3-0.5
		c-0.1,0-0.2-0.1-0.4-0.1c-0.4-0.1-0.7-0.2-1.1-0.3c-0.2,0-0.3-0.1-0.5-0.1c-0.4-0.1-0.7-0.1-1.1-0.1c-0.2,0-0.3,0-0.5-0.1
		c-0.5,0-1,0-1.4,0C39.1,6,39,6,39,6l0,0C39,6,39,19.5,39,19.5z"/>
	<path class="st6" d="M51.8,54.9c0.1,0.1,0.2,0.1,0.3,0.1C52,54.9,51.9,54.9,51.8,54.9z"/>
	<path class="st6" d="M39,63.4v14.5h0c-2.6,0-5.1-0.2-7.6-0.8c-3.8-0.7-7.4-2-10.7-3.8c-0.7-0.4-1.4-0.8-2.1-1.2
		c-3.5-2.2-6.7-4.9-9.4-8c-0.6-0.7-1.2-1.5-1.8-2.3c0.4-0.3,0.7-0.6,1.2-0.9c0.4-0.3,0.8-0.5,1.3-0.8c5.8-3.1,13.4-2.7,17.9-6.4
		l0.6,0.6l0,0L39,63.4z"/>
	<path class="st7" d="M70.4,61.9c-0.5,0.8-1.1,1.5-1.7,2.2c-2.7,3.2-5.8,5.9-9.4,8c-0.7,0.4-1.4,0.8-2.1,1.2
		c-3.3,1.8-6.9,3.1-10.7,3.8c-2.5,0.5-5,0.8-7.6,0.8h0V63.4h0v0l0,0l10.5-9.1l0,0l0,0l0.6-0.5c0.5,0.4,1.1,0.8,1.7,1.1
		C51.9,54.9,52,55,52,55c4.5,2.4,10.9,2.4,15.9,5.1c0.5,0.2,0.9,0.5,1.3,0.8C69.7,61.2,70.1,61.5,70.4,61.9z"/>
</g>
<path class="st8" d="M39,0C17.5,0,0,17.5,0,39c0,9.6,3.5,18.4,9.2,25.2c2.7,3.2,5.8,5.9,9.4,8.1c0.7,0.4,1.4,0.8,2.1,1.2
	c3.3,1.8,6.9,3.1,10.7,3.8c2.5,0.5,5,0.8,7.6,0.8s5.1-0.3,7.6-0.8c3.8-0.7,7.4-2,10.7-3.8c0.7-0.4,1.4-0.8,2.1-1.2
	c3.5-2.2,6.7-4.9,9.4-8.1c5.8-6.8,9.2-15.6,9.2-25.2C77.9,17.5,60.4,0,39,0z M68.1,62.5c-2.6,3.2-5.7,6-9.3,8.2
	c-0.6,0.4-1.2,0.8-1.8,1.1c-5.4,3-11.5,4.7-18.1,4.7s-12.7-1.7-18-4.7c-0.6-0.3-1.2-0.7-1.8-1.1c-3.5-2.2-6.7-5-9.3-8.2
	C4.6,56,1.5,47.9,1.5,39C1.5,18.3,18.3,1.5,39,1.5S76.4,18.3,76.4,39C76.4,47.8,73.3,56,68.1,62.5L68.1,62.5z"/>
<path class="st8" d="M39,0C17.5,0,0,17.5,0,39c0,8.5,2.8,16.5,7.5,22.9c0.6,0.8,1.1,1.5,1.8,2.3c2.7,3.2,5.8,5.9,9.4,8
	c0.7,0.4,1.4,0.8,2.1,1.2c3.3,1.8,6.9,3.1,10.7,3.8c2.5,0.5,5,0.8,7.6,0.8h0c2.6,0,5.1-0.3,7.6-0.8c3.8-0.7,7.4-2,10.7-3.8
	c0.7-0.4,1.4-0.8,2.1-1.2c3.5-2.2,6.7-4.9,9.4-8c0.6-0.7,1.2-1.5,1.7-2.2c4.7-6.4,7.5-14.4,7.5-22.9C77.9,17.5,60.4,0,39,0z
	 M69.3,60.9c-0.4,0.5-0.8,1-1.2,1.5h0c-2.6,3.2-5.7,6-9.3,8.2c-0.6,0.4-1.2,0.8-1.8,1.1c-5.4,3-11.5,4.7-18.1,4.7h0
	c-6.5,0-12.7-1.7-18-4.7c-0.6-0.3-1.2-0.7-1.8-1.1c-3.5-2.2-6.7-5-9.3-8.2c-0.4-0.5-0.8-1-1.2-1.5c-4.5-6.2-7.1-13.8-7.1-22
	C1.5,18.3,18.3,1.5,39,1.5c20.6,0,37.5,16.8,37.5,37.5C76.4,47.2,73.8,54.8,69.3,60.9z"/>
</svg>
