<?xml version="1.0" encoding="UTF-8"?>
<svg id="Layer_1" data-name="Layer 1" xmlns="http://www.w3.org/2000/svg" viewBox="0 0 75.96 82">
  <defs>
    <style>
      .cls-1, .cls-2 {
        fill: #9c7217;
      }

      .cls-3, .cls-4 {
        fill: #b88925;
      }

      .cls-5, .cls-6 {
        fill: #785710;
      }

      .cls-7 {
        fill: #4b6b0a;
      }

      .cls-7, .cls-8, .cls-6, .cls-4, .cls-2, .cls-9, .cls-10, .cls-11 {
        fill-rule: evenodd;
      }

      .cls-8 {
        fill: #608a0c;
      }

      .cls-9 {
        fill: #f0f0f0;
      }

      .cls-10 {
        fill: #e3e3e3;
      }

      .cls-11 {
        fill: #ff9c00;
      }
    </style>
  </defs>
  <polygon class="cls-2" points="3.27 40.49 72.68 40.49 58.88 26.13 17.08 26.13 3.27 40.49"/>
  <polygon class="cls-6" points="37.98 40.49 72.68 40.49 58.88 26.13 37.98 26.13 37.98 40.49"/>
  <rect class="cls-3" x=".97" y="40.49" width="74.01" height="7.3"/>
  <rect class="cls-1" x="37.98" y="40.49" width="37" height="7.3"/>
  <rect class="cls-1" x="3.65" y="47.8" width="68.65" height="25.08"/>
  <rect class="cls-5" x="37.98" y="47.79" width="34.33" height="25.08"/>
  <polygon class="cls-4" points="0 75.91 1.15 72.87 74.81 72.87 75.96 75.91 75.96 82 0 82 0 75.91"/>
  <polygon class="cls-2" points="37.98 72.87 74.81 72.87 75.96 75.91 75.96 82 37.98 82 37.98 72.87"/>
  <g>
    <path class="cls-8" d="m27.78,23.39c1.43,4.91,3.68,11.1-9.43,16.22-2.34-12.98,3.79-15.36,9.43-16.22Z"/>
    <path class="cls-7" d="m48.17,23.39c-1.43,4.91-3.68,11.1,9.42,16.22,2.34-12.98-3.79-15.36-9.42-16.22Z"/>
  </g>
  <path class="cls-8" d="m38.04,20.57c3.7,3.53,8.76,7.75,0,18.76-8.54-10.04-4.44-15.19,0-18.76Z"/>
  <path class="cls-7" d="m38.04,20.57c3.7,3.53,8.76,7.75,0,18.76l-.06-.08v-18.63l.06-.05Z"/>
  <g>
    <g>
      <g>
        <g>
          <g>
            <path class="cls-10" d="m29.9,21.54c.23-2.35,2.52-4.06,5.12-3.8,2.6.25,4.52,2.37,4.29,4.72-.23,2.35-2.53,4.06-5.12,3.8-2.6-.25-4.52-2.37-4.29-4.72Z"/>
            <path class="cls-10" d="m26.98,23.94c2.35.23,4.06,2.53,3.8,5.12-.25,2.6-2.37,4.52-4.72,4.29-2.35-.23-4.06-2.53-3.8-5.13.25-2.6,2.37-4.52,4.72-4.29Z"/>
          </g>
          <g>
            <path class="cls-10" d="m23.78,20.06c-.23,2.35-2.53,4.06-5.12,3.8-2.6-.26-4.52-2.37-4.29-4.72.23-2.35,2.53-4.06,5.12-3.8,2.6.26,4.52,2.37,4.29,4.72Z"/>
            <path class="cls-10" d="m26.71,17.66c-2.35-.23-4.06-2.53-3.8-5.13.25-2.6,2.37-4.52,4.72-4.29,2.35.23,4.06,2.53,3.8,5.12-.25,2.6-2.37,4.52-4.72,4.29Z"/>
          </g>
        </g>
        <g>
          <path class="cls-9" d="m28.91,19.1c-1.5-1.83-1.08-4.65.94-6.31,2.02-1.66,4.87-1.52,6.37.31,1.5,1.83,1.08,4.65-.93,6.31-2.02,1.66-4.87,1.52-6.37-.31Z"/>
          <path class="cls-9" d="m24.77,22.5c1.5,1.83,1.08,4.65-.93,6.31-2.02,1.66-4.87,1.52-6.37-.31-1.5-1.83-1.08-4.65.94-6.31,2.02-1.66,4.87-1.52,6.37.31Z"/>
        </g>
        <path class="cls-9" d="m28.54,22.87c1.83-1.5,4.65-1.08,6.31.94,1.66,2.02,1.52,4.87-.31,6.37-1.83,1.5-4.65,1.08-6.31-.93-1.66-2.02-1.52-4.87.31-6.37Z"/>
        <path class="cls-9" d="m25.14,18.73c-1.83,1.5-4.65,1.08-6.31-.94-1.66-2.02-1.52-4.87.31-6.37,1.83-1.5,4.65-1.08,6.31.94,1.66,2.02,1.52,4.87-.31,6.37Z"/>
        <path class="cls-11" d="m29.29,23.79c1.65-1.35,1.89-3.79.53-5.44-1.35-1.65-3.79-1.89-5.44-.53-1.65,1.35-1.89,3.79-.53,5.44,1.35,1.65,3.79,1.89,5.44.53Z"/>
      </g>
      <g>
        <g>
          <g>
            <path class="cls-10" d="m52.17,21.54c.23-2.35,2.53-4.06,5.13-3.8,2.6.25,4.52,2.37,4.29,4.72-.23,2.35-2.52,4.06-5.12,3.8-2.6-.25-4.52-2.37-4.29-4.72Z"/>
            <path class="cls-10" d="m49.25,23.94c2.35.23,4.06,2.53,3.8,5.12-.25,2.6-2.37,4.52-4.72,4.29-2.35-.23-4.06-2.53-3.8-5.13.25-2.6,2.37-4.52,4.72-4.29Z"/>
          </g>
          <g>
            <path class="cls-10" d="m46.06,20.06c-.23,2.35-2.53,4.06-5.12,3.8-2.6-.26-4.52-2.37-4.29-4.72.23-2.35,2.53-4.06,5.12-3.8,2.6.26,4.52,2.37,4.29,4.72Z"/>
            <path class="cls-10" d="m48.98,17.66c-2.35-.23-4.06-2.53-3.8-5.13.25-2.6,2.37-4.52,4.72-4.29,2.35.23,4.06,2.53,3.8,5.12-.25,2.6-2.37,4.52-4.72,4.29Z"/>
          </g>
        </g>
        <g>
          <path class="cls-9" d="m51.18,19.1c-1.5-1.83-1.08-4.65.94-6.31,2.02-1.66,4.87-1.52,6.37.31,1.5,1.83,1.08,4.65-.94,6.31-2.02,1.66-4.87,1.52-6.37-.31Z"/>
          <path class="cls-9" d="m47.05,22.5c1.5,1.83,1.08,4.65-.94,6.31-2.02,1.66-4.87,1.52-6.37-.31-1.5-1.83-1.08-4.65.93-6.31,2.02-1.66,4.87-1.52,6.37.31Z"/>
        </g>
        <path class="cls-9" d="m50.82,22.87c1.83-1.5,4.65-1.08,6.31.94,1.66,2.02,1.52,4.87-.31,6.37-1.83,1.5-4.65,1.08-6.31-.93-1.66-2.02-1.52-4.87.31-6.37Z"/>
        <path class="cls-9" d="m47.42,18.73c-1.83,1.5-4.65,1.08-6.31-.94-1.66-2.02-1.52-4.87.31-6.37,1.83-1.5,4.65-1.08,6.31.94,1.66,2.02,1.52,4.87-.31,6.37Z"/>
        <path class="cls-11" d="m51.57,23.79c1.65-1.35,1.89-3.79.53-5.44-1.35-1.65-3.79-1.89-5.44-.53-1.65,1.35-1.89,3.79-.53,5.44,1.35,1.65,3.79,1.89,5.44.53Z"/>
      </g>
    </g>
    <g>
      <g>
        <g>
          <path class="cls-10" d="m40.47,9.26c.16-1.64,1.76-2.82,3.56-2.65,1.81.18,3.14,1.65,2.98,3.29-.16,1.64-1.76,2.82-3.56,2.65-1.81-.18-3.14-1.65-2.98-3.29Z"/>
          <path class="cls-10" d="m38.44,10.94c1.64.16,2.82,1.76,2.64,3.56-.18,1.81-1.65,3.14-3.29,2.98-1.64-.16-2.82-1.76-2.65-3.56.18-1.81,1.65-3.14,3.29-2.98Z"/>
        </g>
        <g>
          <path class="cls-10" d="m36.22,8.23c-.16,1.64-1.76,2.82-3.57,2.64-1.81-.18-3.14-1.65-2.98-3.29s1.76-2.82,3.56-2.65c1.81.18,3.14,1.65,2.98,3.29Z"/>
          <path class="cls-10" d="m38.25,6.56c-1.64-.16-2.82-1.76-2.64-3.56.18-1.81,1.65-3.14,3.29-2.98,1.64.16,2.82,1.76,2.64,3.56-.18,1.81-1.65,3.14-3.29,2.98Z"/>
        </g>
      </g>
      <g>
        <path class="cls-9" d="m39.78,7.57c-1.05-1.27-.75-3.24.65-4.39,1.4-1.15,3.39-1.06,4.43.21,1.04,1.27.75,3.24-.65,4.39-1.4,1.15-3.39,1.06-4.43-.21Z"/>
        <path class="cls-9" d="m36.91,9.93c1.04,1.27.75,3.24-.65,4.39-1.4,1.15-3.39,1.06-4.43-.21-1.04-1.27-.75-3.24.65-4.39,1.4-1.15,3.39-1.06,4.43.21Z"/>
      </g>
      <path class="cls-9" d="m39.53,10.19c1.27-1.04,3.24-.75,4.39.65,1.15,1.4,1.06,3.39-.21,4.43-1.27,1.04-3.24.75-4.39-.65-1.15-1.4-1.06-3.39.21-4.43Z"/>
      <path class="cls-9" d="m37.16,7.31c-1.27,1.05-3.24.75-4.39-.65-1.15-1.4-1.06-3.39.21-4.43,1.27-1.04,3.24-.75,4.39.65,1.15,1.4,1.06,3.39-.21,4.43Z"/>
      <path class="cls-11" d="m40.05,10.83c1.15-.94,1.31-2.64.37-3.78-.94-1.15-2.64-1.31-3.78-.37-1.15.94-1.31,2.64-.37,3.78.94,1.15,2.64,1.31,3.78.37Z"/>
    </g>
  </g>
</svg>