<?xml version="1.0" encoding="utf-8"?>
<!-- Generator: Adobe Illustrator 27.4.1, SVG Export Plug-In . SVG Version: 6.00 Build 0)  -->
<svg version="1.1" id="Layer_1" xmlns="http://www.w3.org/2000/svg" xmlns:xlink="http://www.w3.org/1999/xlink" x="0px" y="0px"
	 viewBox="0 0 76.7 81.7" style="enable-background:new 0 0 76.7 81.7;" xml:space="preserve">
<style type="text/css">
	.st0{fill-rule:evenodd;clip-rule:evenodd;fill:#FF9C00;}
	.st1{fill-rule:evenodd;clip-rule:evenodd;fill:#B87814;}
	.st2{fill-rule:evenodd;clip-rule:evenodd;fill:#B87000;}
	.st3{fill-rule:evenodd;clip-rule:evenodd;fill:#4F4F4F;}
	.st4{fill-rule:evenodd;clip-rule:evenodd;fill:#292929;}
	.st5{fill-rule:evenodd;clip-rule:evenodd;fill:#FFFFFF;}
	.st6{fill-rule:evenodd;clip-rule:evenodd;fill:#F0F0F0;}
	.st7{fill-rule:evenodd;clip-rule:evenodd;fill:#1F1F1F;}
	.st8{fill-rule:evenodd;clip-rule:evenodd;fill:#CDF2FA;}
</style>
<g>
	<path class="st0" d="M38.3,62.3H23.8c-4.7-1.9-9-4.8-12.6-8.3c0.2-14,15.7-5.9,19.3-15.9c0.7-1.9,0.7-4.8,0.3-6.8l7.5,0.1l7.5-0.1
		c-0.4,1.9-0.4,4.9,0.3,6.8c3.7,10,19.1,1.9,19.3,15.9c-3.6,3.5-7.8,6.4-12.6,8.3C52.8,62.3,38.3,62.3,38.3,62.3z"/>
	<path class="st1" d="M38.3,62.3h14.5c4.7-1.9,9-4.8,12.6-8.3C65.1,39.9,49.7,48.1,46,38c-0.7-1.9-0.7-4.8-0.3-6.8l-7.5,0.1
		C38.3,31.4,38.3,62.3,38.3,62.3z"/>
	<path class="st0" d="M38.5,35.8c0,0-0.1,0-0.1,0c-1.6,0-2.3,0-3.2-0.4c-0.8-0.3-1.2-1.2-2.3-2.2c-1-0.9-2.7-1.9-3.1-2.9
		c-0.5-1.2-0.4-2.6-0.6-4.4c-0.9,0.5-1.9-2.1-2-2.9c-0.3-1.2-1.2-3.3-1.5-4.8c-0.2-0.8-0.1-1.5,0.2-1.6c0.6-0.4,1.2-0.2,2.1,1.1
		c0-1.8-0.1-3.3,0.1-4.6c1.2-7.1,18.5-11,20.5,0c0.2,1.3,0.2,2.8,0.2,4.6c0.9-1.2,1.5-1.5,2.1-1c0.3,0.2,0.4,0.9,0.2,1.6
		c-0.3,1.4-1.2,3.5-1.5,4.8c-0.2,0.8-1.1,3.3-2,2.9c-0.2,1.7-0.1,3-0.6,4.2c-0.4,1-2.1,2-3.1,2.9c-1.1,1.1-1.5,1.9-2.3,2.3
		S39.9,35.8,38.5,35.8L38.5,35.8z"/>
	<path class="st2" d="M38.5,35.8c0,0-0.1,0-0.1,0h-0.1V6.3c4.6-0.4,9.3,1.4,10.2,6.8c0.2,1.3,0.2,2.8,0.2,4.6c0.9-1.2,1.5-1.5,2.1-1
		c0.3,0.2,0.4,0.9,0.2,1.6c-0.3,1.4-1.2,3.5-1.5,4.8c-0.2,0.8-1.1,3.3-2,2.9c-0.2,1.7-0.1,3-0.6,4.2c-0.4,1-2.1,2-3.1,2.9
		c-1.1,1.1-1.5,1.9-2.3,2.3S39.9,35.8,38.5,35.8L38.5,35.8z"/>
	<path class="st3" d="M30.4,11.3c-1.5,1.8-1.8,8.6-1.7,11c-2.5-9-3.8-15.4,1.6-19.5c7.1-5.3,15-2,16.3,0.1c5.2,2.9,3.4,10.9,1.8,18
		c0-2.7-1.3-9.3-2.4-12.1C42.1,6.5,34.1,7,30.4,11.3L30.4,11.3z"/>
	<path class="st4" d="M38.3,0c4.1-0.1,7.5,1.7,8.3,3c5.2,2.9,3.4,10.9,1.8,18c0-2.7-1.3-9.3-2.4-12.1c-3.2-1.4-3.5-1.6-7.8-1.4V0z"
		/>
	<path class="st5" d="M35.1,39c2.5,0.5,4.2,0.5,6.5-0.1l-0.2,4.4c0,0-3.1,2-3.2,2s-3-1.9-3-1.9L35.1,39L35.1,39z"/>
	<path class="st6" d="M38.3,39.3c1.1,0,2.2-0.1,3.4-0.4l-0.2,4.4c0,0-3.1,2-3.2,2h0L38.3,39.3L38.3,39.3z"/>
	<path class="st3" d="M35.8,39.2c-0.1,0-0.1,0-0.2-0.1l-6.1-1.6l-0.2,1.8c-3.6,3.2-10,2.8-14.9,5.5c-2.9,1.6-3.8,3.5-5.1,7.2L0,78.2
		h66.3c-0.1-8.8,1.8-26.3-0.7-30c-4.6-6.7-13.6-4.8-18.3-9l-0.2-1.8c-1.1,0.1-5,3-6.1,3.1c-0.1,0-0.2,0-0.2,0v2.2h-4.9V39.2
		L35.8,39.2z"/>
	<path class="st4" d="M40.7,39.2c0.1,0,0.1,0,0.2-0.1l6.1-1.6l0.2,1.8c3.6,3.2,10,2.8,14.9,5.5c2.9,1.6,3.9,3.5,5.1,7.2l9.2,26.3
		H38.3V42.8h2.4V39.2L40.7,39.2z"/>
	<g>
		<polygon class="st4" points="19.9,59.5 13.7,78.2 17.3,78.2 		"/>
		<polygon class="st7" points="56.7,59.5 62.8,78.2 59.3,78.2 		"/>
	</g>
	<polygon class="st8" points="22.2,58.2 37.3,51.3 47,73.7 32,80.5 	"/>
	<g>
		<path class="st0" d="M38.1,69.9l-1.3-0.4c-3.6,0-5.7,0.1-9.2-0.8c-0.8-0.2-1.4-0.5-2.1-0.1c-0.8,0.5-0.8,1.6,0.4,2.3
			c-0.8,0.5-0.9,1.7,0.2,2.3c-0.6,0.8-0.4,1.8,1.1,2.4c-1.1,0.4-0.7,1.3,0.2,1.7c1.1,0.6,2.8,1.2,3,1.3c2.8,0.1,5-0.4,7.6-1.2
			l1.2-5.5L38.1,69.9L38.1,69.9z"/>
		<path class="st0" d="M38.1,70.2c-1.3-0.9-1.7-2.7-2.5-4.1c-0.6-1-1.2-1.1-3.1-2.4c-0.8-0.7-1.4-1.3-2.3-2.2
			c-2.5,2.9,2.7,3.7,1.9,6c-0.2,0.6-0.9,1.1-1.8,1.9l1.8,1.4L38.1,70.2L38.1,70.2z"/>
	</g>
	<path class="st4" d="M37.8,68.1l31.8,2.1c9.2,0.6,9.8,12.1-0.1,11.5l-31.6-2.1C37.8,79.6,37.8,68.1,37.8,68.1z"/>
</g>
</svg>
