<?xml version="1.0" encoding="UTF-8"?>
<svg id="Layer_1" data-name="Layer 1" xmlns="http://www.w3.org/2000/svg" viewBox="0 0 52.35 82">
  <defs>
    <style>
      .cls-1 {
        fill: #4f4f4f;
      }

      .cls-2 {
        fill: #3b3b3b;
      }

      .cls-2, .cls-3, .cls-4, .cls-5, .cls-6, .cls-7, .cls-8, .cls-9 {
        fill-rule: evenodd;
      }

      .cls-3 {
        fill: #292929;
      }

      .cls-4 {
        fill: #4b6b0a;
      }

      .cls-5 {
        fill: #608a0c;
      }

      .cls-6 {
        fill: #1c1c1c;
      }

      .cls-7 {
        fill: #e3e3e3;
      }

      .cls-8 {
        fill: #fff;
      }

      .cls-9 {
        fill: #ff9c00;
      }
    </style>
  </defs>
  <path class="cls-5" d="m26.17,0c12.78,9.93,23.83,31.92,23.96,42.1.09,6.9-2.41,39.18-23.96,39.9C4.63,81.27,2.13,48.99,2.22,42.1,2.35,31.92,13.4,9.93,26.17,0Z"/>
  <path class="cls-4" d="m26.17,0c12.78,9.93,23.83,31.92,23.96,42.09.09,6.9-2.41,39.18-23.96,39.9V0Z"/>
  <g>
    <g>
      <g>
        <path class="cls-7" d="m27.79,15.91c.12,1.25,1.34,2.15,2.71,2.01,1.38-.13,2.39-1.25,2.27-2.5-.12-1.25-1.34-2.15-2.71-2.01-1.38.13-2.39,1.25-2.27,2.5Z"/>
        <path class="cls-7" d="m26.24,14.63c1.25-.12,2.15-1.34,2.01-2.71-.13-1.38-1.26-2.39-2.5-2.27-1.25.12-2.15,1.34-2.01,2.71.13,1.38,1.25,2.39,2.5,2.27Z"/>
      </g>
      <g>
        <path class="cls-7" d="m24.55,16.69c-.12-1.25-1.34-2.15-2.71-2.01-1.38.13-2.39,1.25-2.27,2.5.12,1.25,1.34,2.15,2.71,2.01,1.38-.13,2.39-1.25,2.27-2.5Z"/>
        <path class="cls-7" d="m26.1,17.96c-1.25.12-2.15,1.34-2.01,2.71.13,1.38,1.26,2.39,2.5,2.27,1.25-.12,2.15-1.34,2.01-2.71-.13-1.38-1.25-2.39-2.5-2.27Z"/>
      </g>
    </g>
    <g>
      <path class="cls-8" d="m27.27,17.2c-.8.97-.57,2.46.49,3.34,1.07.88,2.58.81,3.38-.16.8-.97.57-2.46-.5-3.34-1.07-.88-2.58-.81-3.37.16Z"/>
      <path class="cls-8" d="m25.08,15.4c.8-.97.57-2.46-.49-3.34-1.07-.88-2.58-.81-3.38.16-.79.97-.57,2.47.5,3.34,1.07.88,2.58.81,3.37-.16Z"/>
    </g>
    <path class="cls-8" d="m27.07,15.2c.97.8,2.47.57,3.34-.5.88-1.07.81-2.58-.16-3.38-.97-.8-2.47-.57-3.34.5-.88,1.07-.81,2.58.16,3.38Z"/>
    <path class="cls-8" d="m25.27,17.39c-.97-.8-2.47-.57-3.34.5-.88,1.07-.81,2.58.16,3.38.97.8,2.47.57,3.34-.5.88-1.07.81-2.58-.16-3.38Z"/>
    <path class="cls-9" d="m27.47,14.72c.87.72,1,2.01.28,2.88-.72.87-2.01,1-2.88.28-.87-.72-1-2.01-.28-2.88.72-.87,2.01-1,2.88-.28Z"/>
  </g>
  <g>
    <g>
      <g>
        <path class="cls-7" d="m21.89,24.87c.12,1.25,1.34,2.15,2.71,2.01,1.38-.13,2.39-1.25,2.27-2.5-.12-1.25-1.34-2.15-2.71-2.01-1.38.14-2.39,1.26-2.27,2.5Z"/>
        <path class="cls-7" d="m20.35,23.59c1.25-.12,2.15-1.34,2.01-2.71-.13-1.38-1.25-2.39-2.5-2.27-1.25.12-2.15,1.34-2.01,2.71.14,1.38,1.25,2.39,2.5,2.27Z"/>
      </g>
      <g>
        <path class="cls-7" d="m18.66,25.65c-.12-1.25-1.34-2.15-2.71-2.01-1.38.13-2.39,1.25-2.27,2.5.12,1.25,1.34,2.15,2.71,2.01,1.38-.14,2.39-1.25,2.27-2.5Z"/>
        <path class="cls-7" d="m20.2,26.92c-1.25.12-2.15,1.34-2.01,2.71.14,1.38,1.26,2.39,2.5,2.27s2.15-1.34,2.01-2.71c-.14-1.38-1.26-2.39-2.5-2.27Z"/>
      </g>
    </g>
    <g>
      <path class="cls-8" d="m21.37,26.16c-.79.97-.57,2.46.49,3.34,1.07.88,2.58.81,3.38-.16.8-.97.57-2.46-.49-3.34s-2.58-.81-3.38.16Z"/>
      <path class="cls-8" d="m19.18,24.36c.79-.97.57-2.46-.5-3.34-1.07-.88-2.58-.81-3.38.16-.79.97-.57,2.47.5,3.34,1.07.88,2.58.81,3.38-.16Z"/>
    </g>
    <path class="cls-8" d="m21.17,24.16c.97.8,2.47.57,3.34-.5.88-1.07.81-2.58-.16-3.38-.97-.8-2.46-.57-3.34.49-.88,1.07-.81,2.58.16,3.38Z"/>
    <path class="cls-8" d="m19.38,26.35c-.97-.8-2.47-.57-3.34.5-.88,1.07-.81,2.58.16,3.38.97.8,2.47.57,3.34-.5.88-1.07.81-2.58-.16-3.38Z"/>
    <path class="cls-9" d="m21.57,23.68c.87.72,1,2.01.28,2.88-.72.87-2.01,1-2.88.28-.87-.72-1-2.01-.28-2.88.72-.87,2.01-1,2.88-.28Z"/>
  </g>
  <g>
    <g>
      <g>
        <path class="cls-7" d="m33.69,24.87c.12,1.25,1.34,2.15,2.71,2.01,1.38-.13,2.39-1.25,2.27-2.5-.12-1.25-1.34-2.15-2.71-2.01-1.38.14-2.39,1.26-2.27,2.5Z"/>
        <path class="cls-7" d="m32.14,23.59c1.25-.12,2.15-1.34,2.01-2.71-.14-1.38-1.26-2.39-2.5-2.27-1.25.12-2.15,1.34-2.01,2.71.14,1.38,1.26,2.39,2.5,2.27Z"/>
      </g>
      <g>
        <path class="cls-7" d="m30.45,25.65c-.12-1.25-1.34-2.15-2.71-2.01-1.38.13-2.39,1.25-2.27,2.5.12,1.25,1.34,2.15,2.71,2.01,1.38-.14,2.39-1.25,2.27-2.5Z"/>
        <path class="cls-7" d="m32,26.92c-1.25.12-2.15,1.34-2.01,2.71.14,1.38,1.26,2.39,2.5,2.27s2.15-1.34,2.01-2.71c-.14-1.38-1.26-2.39-2.5-2.27Z"/>
      </g>
    </g>
    <g>
      <path class="cls-8" d="m33.17,26.16c-.8.97-.57,2.46.49,3.34,1.07.88,2.58.81,3.37-.16.8-.97.57-2.46-.49-3.34s-2.58-.81-3.37.16Z"/>
      <path class="cls-8" d="m30.98,24.36c.79-.97.57-2.46-.5-3.34-1.07-.88-2.58-.81-3.37.16-.8.97-.57,2.47.49,3.34,1.07.88,2.58.81,3.38-.16Z"/>
    </g>
    <path class="cls-8" d="m32.97,24.16c.97.8,2.47.57,3.34-.5.88-1.07.81-2.58-.16-3.38-.97-.8-2.47-.57-3.34.49-.88,1.07-.81,2.58.16,3.38Z"/>
    <path class="cls-8" d="m31.17,26.35c-.97-.8-2.47-.57-3.34.5-.88,1.07-.81,2.58.16,3.38.97.8,2.47.57,3.34-.5s.81-2.58-.16-3.38Z"/>
    <path class="cls-9" d="m33.37,23.68c.87.72,1,2.01.28,2.88-.72.87-2.01,1-2.88.28-.87-.72-1-2.01-.28-2.88.72-.87,2.01-1,2.88-.28Z"/>
  </g>
  <g>
    <g>
      <g>
        <path class="cls-7" d="m27.79,34.54c.12,1.25,1.34,2.15,2.71,2.01,1.38-.13,2.39-1.25,2.27-2.5-.12-1.25-1.34-2.15-2.71-2.01-1.38.13-2.39,1.25-2.27,2.5Z"/>
        <path class="cls-7" d="m26.24,33.26c1.25-.12,2.15-1.34,2.01-2.71-.13-1.38-1.26-2.39-2.5-2.27-1.25.12-2.15,1.34-2.01,2.71.13,1.38,1.25,2.39,2.5,2.27Z"/>
      </g>
      <g>
        <path class="cls-7" d="m24.55,35.32c-.12-1.25-1.34-2.15-2.71-2.01-1.38.13-2.39,1.25-2.27,2.5.12,1.25,1.34,2.15,2.71,2.01,1.38-.13,2.39-1.25,2.27-2.5Z"/>
        <path class="cls-7" d="m26.1,36.59c-1.25.12-2.15,1.34-2.01,2.71.13,1.38,1.26,2.39,2.5,2.27,1.25-.12,2.15-1.34,2.01-2.71-.13-1.38-1.25-2.39-2.5-2.27Z"/>
      </g>
    </g>
    <g>
      <path class="cls-8" d="m27.27,35.83c-.8.97-.57,2.46.49,3.34,1.07.88,2.58.81,3.38-.16.8-.97.57-2.47-.5-3.34-1.07-.88-2.58-.81-3.37.16Z"/>
      <path class="cls-8" d="m25.08,34.03c.8-.97.57-2.46-.49-3.34-1.07-.88-2.58-.81-3.38.16-.79.97-.57,2.47.5,3.34,1.07.88,2.58.81,3.37-.16Z"/>
    </g>
    <path class="cls-8" d="m27.07,33.83c.97.8,2.47.57,3.34-.5.88-1.07.81-2.58-.16-3.38-.97-.8-2.47-.57-3.34.5-.88,1.07-.81,2.58.16,3.38Z"/>
    <path class="cls-8" d="m25.27,36.02c-.97-.8-2.47-.57-3.34.5s-.81,2.58.16,3.38c.97.8,2.47.57,3.34-.5.88-1.07.81-2.58-.16-3.38Z"/>
    <path class="cls-9" d="m27.47,33.35c.87.72,1,2.01.28,2.88-.72.87-2.01,1-2.88.28-.87-.72-1-2.01-.28-2.88.72-.87,2.01-1,2.88-.28Z"/>
  </g>
  <g>
    <g>
      <g>
        <g>
          <path class="cls-7" d="m15.95,34.34c.12,1.25,1.34,2.15,2.71,2.01,1.38-.13,2.39-1.25,2.27-2.5-.12-1.25-1.34-2.15-2.71-2.01-1.38.14-2.39,1.25-2.27,2.5Z"/>
          <path class="cls-7" d="m14.4,33.07c1.25-.12,2.15-1.34,2.01-2.71-.14-1.38-1.26-2.39-2.5-2.27-1.25.12-2.15,1.34-2.01,2.71.14,1.38,1.26,2.39,2.5,2.27Z"/>
        </g>
        <g>
          <path class="cls-7" d="m12.71,35.13c-.12-1.25-1.34-2.15-2.71-2.01-1.38.13-2.39,1.25-2.27,2.5.12,1.25,1.34,2.15,2.71,2.01,1.38-.14,2.39-1.25,2.27-2.5Z"/>
          <path class="cls-7" d="m14.26,36.4c-1.25.12-2.15,1.34-2.01,2.71.13,1.38,1.25,2.39,2.5,2.27,1.25-.12,2.15-1.34,2.01-2.71-.14-1.38-1.26-2.39-2.5-2.27Z"/>
        </g>
      </g>
      <g>
        <path class="cls-8" d="m15.42,35.63c-.8.97-.57,2.46.49,3.34s2.58.81,3.38-.16c.79-.97.57-2.46-.5-3.34-1.07-.88-2.58-.81-3.37.16Z"/>
        <path class="cls-8" d="m13.23,33.84c.8-.97.57-2.46-.49-3.34-1.07-.88-2.58-.81-3.38.16-.8.97-.57,2.46.49,3.34,1.07.88,2.58.81,3.38-.16Z"/>
      </g>
      <path class="cls-8" d="m15.23,33.64c.97.8,2.47.57,3.34-.49.88-1.07.81-2.58-.16-3.38-.97-.8-2.47-.57-3.34.49-.88,1.07-.81,2.58.16,3.38Z"/>
      <path class="cls-8" d="m13.43,35.83c-.97-.8-2.47-.57-3.34.5-.88,1.07-.81,2.58.16,3.38.97.8,2.46.57,3.34-.5.88-1.07.81-2.58-.16-3.38Z"/>
      <path class="cls-9" d="m15.63,33.15c.87.72,1,2.01.28,2.88-.72.87-2.01,1-2.88.28-.87-.72-1-2.01-.28-2.88.72-.87,2.01-1,2.88-.28Z"/>
    </g>
    <g>
      <g>
        <g>
          <path class="cls-7" d="m39.64,34.34c.12,1.25,1.34,2.15,2.71,2.01,1.38-.13,2.39-1.25,2.27-2.5-.12-1.25-1.34-2.15-2.71-2.01-1.38.14-2.39,1.25-2.27,2.5Z"/>
          <path class="cls-7" d="m38.09,33.07c1.25-.12,2.15-1.34,2.01-2.71-.13-1.38-1.25-2.39-2.5-2.27-1.25.12-2.15,1.34-2.01,2.71.13,1.38,1.25,2.39,2.5,2.27Z"/>
        </g>
        <g>
          <path class="cls-7" d="m36.4,35.13c-.12-1.25-1.34-2.15-2.71-2.01-1.38.13-2.39,1.25-2.27,2.5.12,1.25,1.34,2.15,2.71,2.01,1.38-.14,2.39-1.25,2.27-2.5Z"/>
          <path class="cls-7" d="m37.95,36.4c-1.25.12-2.15,1.34-2.01,2.71.14,1.38,1.26,2.39,2.5,2.27,1.25-.12,2.15-1.34,2.01-2.71-.14-1.38-1.26-2.39-2.5-2.27Z"/>
        </g>
      </g>
      <g>
        <path class="cls-8" d="m39.11,35.63c-.79.97-.57,2.46.49,3.34,1.07.88,2.58.81,3.38-.16.8-.97.57-2.46-.49-3.34-1.07-.88-2.58-.81-3.38.16Z"/>
        <path class="cls-8" d="m36.93,33.84c.79-.97.57-2.46-.5-3.34-1.07-.88-2.58-.81-3.38.16-.79.97-.57,2.46.5,3.34,1.07.88,2.58.81,3.38-.16Z"/>
      </g>
      <path class="cls-8" d="m38.92,33.64c.97.8,2.47.57,3.34-.49.88-1.07.81-2.58-.16-3.38-.97-.8-2.46-.57-3.34.49-.88,1.07-.81,2.58.16,3.38Z"/>
      <path class="cls-8" d="m37.12,35.83c-.97-.8-2.47-.57-3.34.5-.88,1.07-.81,2.58.16,3.38.97.8,2.47.57,3.34-.5.88-1.07.81-2.58-.16-3.38Z"/>
      <path class="cls-9" d="m39.32,33.15c.87.72,1,2.01.28,2.88s-2.01,1-2.88.28c-.87-.72-1-2.01-.28-2.88.72-.87,2.01-1,2.88-.28Z"/>
    </g>
  </g>
  <g>
    <g>
      <g>
        <g>
          <path class="cls-7" d="m34.05,44.4c.12,1.25,1.34,2.15,2.71,2.01,1.38-.13,2.39-1.25,2.27-2.5-.12-1.25-1.34-2.15-2.71-2.01-1.38.14-2.39,1.25-2.27,2.5Z"/>
          <path class="cls-7" d="m32.5,43.13c1.25-.12,2.15-1.34,2.01-2.71-.13-1.38-1.25-2.39-2.5-2.27-1.25.12-2.15,1.34-2.01,2.71s1.25,2.39,2.5,2.27Z"/>
        </g>
        <g>
          <path class="cls-7" d="m30.81,45.18c-.12-1.25-1.34-2.15-2.71-2.01-1.38.13-2.39,1.25-2.27,2.5.12,1.25,1.34,2.15,2.71,2.01,1.38-.14,2.39-1.26,2.27-2.5Z"/>
          <path class="cls-7" d="m32.36,46.46c-1.25.12-2.15,1.34-2.01,2.71.14,1.38,1.26,2.39,2.5,2.27,1.25-.12,2.15-1.34,2.01-2.71-.14-1.38-1.26-2.39-2.5-2.27Z"/>
        </g>
      </g>
      <g>
        <path class="cls-8" d="m33.52,45.69c-.79.97-.57,2.47.49,3.34,1.07.88,2.58.81,3.38-.16.8-.97.57-2.46-.49-3.34-1.07-.88-2.58-.81-3.38.16Z"/>
        <path class="cls-8" d="m31.33,43.89c.79-.97.57-2.47-.5-3.34-1.07-.88-2.58-.81-3.38.16-.79.97-.57,2.46.5,3.34,1.07.88,2.58.81,3.38-.16Z"/>
      </g>
      <path class="cls-8" d="m33.33,43.7c.97.8,2.47.57,3.34-.49.88-1.07.81-2.58-.16-3.38-.97-.8-2.46-.57-3.34.5-.88,1.07-.81,2.58.16,3.38Z"/>
      <path class="cls-8" d="m31.53,45.89c-.97-.8-2.47-.57-3.34.49-.88,1.07-.81,2.58.16,3.38.97.8,2.47.57,3.34-.5.88-1.07.81-2.58-.16-3.38Z"/>
      <path class="cls-9" d="m33.73,43.21c.87.72,1,2.01.28,2.88s-2.01,1-2.88.28c-.87-.72-1-2.01-.28-2.88.72-.87,2.01-1,2.88-.28Z"/>
    </g>
    <g>
      <g>
        <g>
          <path class="cls-7" d="m21.54,44.4c.12,1.25,1.34,2.15,2.71,2.01,1.38-.13,2.39-1.25,2.27-2.5-.12-1.25-1.34-2.15-2.71-2.01-1.38.14-2.39,1.25-2.27,2.5Z"/>
          <path class="cls-7" d="m19.99,43.13c1.25-.12,2.15-1.34,2.01-2.71-.14-1.38-1.26-2.39-2.5-2.27-1.25.12-2.15,1.34-2.01,2.71.14,1.38,1.26,2.39,2.5,2.27Z"/>
        </g>
        <g>
          <path class="cls-7" d="m18.3,45.18c-.12-1.25-1.34-2.15-2.71-2.01-1.38.13-2.39,1.25-2.27,2.5.12,1.25,1.34,2.15,2.71,2.01,1.38-.14,2.39-1.26,2.27-2.5Z"/>
          <path class="cls-7" d="m19.85,46.46c-1.25.12-2.15,1.34-2.01,2.71.13,1.38,1.25,2.39,2.5,2.27,1.25-.12,2.15-1.34,2.01-2.71-.14-1.38-1.26-2.39-2.5-2.27Z"/>
        </g>
      </g>
      <g>
        <path class="cls-8" d="m21.02,45.69c-.8.97-.57,2.47.49,3.34,1.07.88,2.58.81,3.38-.16.79-.97.57-2.46-.5-3.34-1.07-.88-2.58-.81-3.37.16Z"/>
        <path class="cls-8" d="m18.83,43.89c.8-.97.57-2.47-.49-3.34-1.07-.88-2.58-.81-3.38.16-.8.97-.57,2.46.49,3.34,1.07.88,2.58.81,3.38-.16Z"/>
      </g>
      <path class="cls-8" d="m20.82,43.7c.97.8,2.47.57,3.34-.49.88-1.07.81-2.58-.16-3.38-.97-.8-2.47-.57-3.34.5-.88,1.07-.81,2.58.16,3.38Z"/>
      <path class="cls-8" d="m19.02,45.89c-.97-.8-2.47-.57-3.34.49-.88,1.07-.81,2.58.16,3.38.97.8,2.46.57,3.34-.5.88-1.07.81-2.58-.16-3.38Z"/>
      <path class="cls-9" d="m21.22,43.21c.87.72,1,2.01.28,2.88-.72.87-2.01,1-2.88.28-.87-.72-1-2.01-.28-2.88.72-.87,2.01-1,2.88-.28Z"/>
    </g>
  </g>
  <g>
    <g>
      <g>
        <path class="cls-7" d="m27.79,53.68c.12,1.25,1.34,2.15,2.71,2.01,1.38-.13,2.39-1.25,2.27-2.5-.12-1.25-1.34-2.15-2.71-2.01-1.38.13-2.39,1.25-2.27,2.5Z"/>
        <path class="cls-7" d="m26.24,52.41c1.25-.12,2.15-1.34,2.01-2.71-.13-1.38-1.26-2.39-2.5-2.27-1.25.12-2.15,1.34-2.01,2.71.13,1.38,1.25,2.39,2.5,2.27Z"/>
      </g>
      <g>
        <path class="cls-7" d="m24.55,54.47c-.12-1.25-1.34-2.15-2.71-2.01-1.38.13-2.39,1.25-2.27,2.5.12,1.25,1.34,2.15,2.71,2.01,1.38-.13,2.39-1.25,2.27-2.5Z"/>
        <path class="cls-7" d="m26.1,55.74c-1.25.12-2.15,1.34-2.01,2.71.13,1.38,1.26,2.39,2.5,2.27,1.25-.12,2.15-1.34,2.01-2.71-.13-1.38-1.25-2.39-2.5-2.27Z"/>
      </g>
    </g>
    <g>
      <path class="cls-8" d="m27.27,54.97c-.8.97-.57,2.46.49,3.34,1.07.88,2.58.81,3.38-.16.8-.97.57-2.47-.5-3.34-1.07-.88-2.58-.81-3.37.16Z"/>
      <path class="cls-8" d="m25.08,53.18c.8-.97.57-2.46-.49-3.34-1.07-.88-2.58-.81-3.38.16-.79.97-.57,2.47.5,3.34,1.07.88,2.58.81,3.37-.16Z"/>
    </g>
    <path class="cls-8" d="m27.07,52.98c.97.8,2.47.57,3.34-.5.88-1.07.81-2.58-.16-3.38-.97-.8-2.47-.57-3.34.5-.88,1.07-.81,2.58.16,3.38Z"/>
    <path class="cls-8" d="m25.27,55.17c-.97-.8-2.47-.57-3.34.5s-.81,2.58.16,3.38c.97.8,2.47.57,3.34-.5.88-1.07.81-2.58-.16-3.38Z"/>
    <path class="cls-9" d="m27.47,52.49c.87.72,1,2.01.28,2.88-.72.87-2.01,1-2.88.28-.87-.72-1-2.01-.28-2.88.72-.87,2.01-1,2.88-.28Z"/>
  </g>
  <g>
    <g>
      <g>
        <g>
          <path class="cls-7" d="m15.45,54.26c.12,1.25,1.34,2.15,2.71,2.01,1.38-.13,2.39-1.25,2.27-2.5-.12-1.25-1.34-2.15-2.71-2.01-1.38.14-2.39,1.26-2.27,2.5Z"/>
          <path class="cls-7" d="m13.9,52.99c1.25-.12,2.15-1.34,2.01-2.71-.13-1.38-1.26-2.39-2.5-2.27-1.25.12-2.15,1.34-2.01,2.71.13,1.38,1.25,2.39,2.5,2.27Z"/>
        </g>
        <g>
          <path class="cls-7" d="m12.21,55.05c-.12-1.25-1.34-2.15-2.71-2.01-1.38.13-2.39,1.25-2.27,2.5.12,1.25,1.34,2.15,2.71,2.01,1.38-.14,2.39-1.26,2.27-2.5Z"/>
          <path class="cls-7" d="m13.76,56.32c-1.25.12-2.15,1.34-2.01,2.71.13,1.38,1.26,2.39,2.5,2.27,1.25-.12,2.15-1.34,2.01-2.71-.14-1.38-1.25-2.39-2.5-2.27Z"/>
        </g>
      </g>
      <g>
        <path class="cls-8" d="m14.92,55.56c-.8.97-.57,2.46.49,3.34s2.58.81,3.38-.16c.8-.97.57-2.46-.49-3.34-1.07-.88-2.58-.81-3.38.16Z"/>
        <path class="cls-8" d="m12.73,53.76c.8-.97.57-2.46-.49-3.34-1.07-.88-2.58-.81-3.38.16-.79.97-.57,2.46.5,3.34,1.07.88,2.58.81,3.37-.16Z"/>
      </g>
      <path class="cls-8" d="m14.73,53.56c.97.8,2.47.57,3.34-.5.88-1.07.81-2.58-.16-3.38-.97-.8-2.46-.57-3.34.49-.88,1.07-.81,2.58.16,3.38Z"/>
      <path class="cls-8" d="m12.93,55.75c-.97-.8-2.47-.57-3.34.5s-.81,2.58.16,3.38c.97.8,2.47.57,3.34-.5.88-1.07.81-2.58-.16-3.38Z"/>
      <path class="cls-9" d="m15.13,53.07c.87.72,1,2.01.28,2.88s-2.01,1-2.88.28c-.87-.72-1-2.01-.28-2.88.72-.87,2.01-1,2.88-.28Z"/>
    </g>
    <g>
      <g>
        <g>
          <path class="cls-7" d="m40.14,54.26c.12,1.25,1.34,2.15,2.71,2.01,1.38-.13,2.39-1.25,2.27-2.5-.12-1.25-1.34-2.15-2.71-2.01-1.38.14-2.39,1.26-2.27,2.5Z"/>
          <path class="cls-7" d="m38.59,52.99c1.25-.12,2.15-1.34,2.01-2.71-.13-1.38-1.26-2.39-2.5-2.27-1.25.12-2.15,1.34-2.01,2.71.13,1.38,1.25,2.39,2.5,2.27Z"/>
        </g>
        <g>
          <path class="cls-7" d="m36.9,55.05c-.12-1.25-1.34-2.15-2.71-2.01-1.38.13-2.39,1.25-2.27,2.5.12,1.25,1.34,2.15,2.71,2.01,1.38-.14,2.39-1.26,2.27-2.5Z"/>
          <path class="cls-7" d="m38.45,56.32c-1.25.12-2.15,1.34-2.01,2.71.14,1.38,1.25,2.39,2.5,2.27,1.25-.12,2.15-1.34,2.01-2.71-.14-1.38-1.25-2.39-2.5-2.27Z"/>
        </g>
      </g>
      <g>
        <path class="cls-8" d="m39.61,55.56c-.8.97-.57,2.46.49,3.34,1.07.88,2.58.81,3.38-.16.8-.97.57-2.46-.49-3.34-1.07-.88-2.58-.81-3.38.16Z"/>
        <path class="cls-8" d="m37.42,53.76c.8-.97.57-2.46-.49-3.34-1.07-.88-2.58-.81-3.38.16-.79.97-.57,2.46.5,3.34,1.07.88,2.58.81,3.37-.16Z"/>
      </g>
      <path class="cls-8" d="m39.42,53.56c.97.8,2.47.57,3.34-.5.88-1.07.81-2.58-.16-3.38-.97-.8-2.46-.57-3.34.49-.88,1.07-.81,2.58.16,3.38Z"/>
      <path class="cls-8" d="m37.62,55.75c-.97-.8-2.47-.57-3.34.5s-.81,2.58.16,3.38c.97.8,2.47.57,3.34-.5.88-1.07.81-2.58-.16-3.38Z"/>
      <path class="cls-9" d="m39.82,53.07c.87.72,1,2.01.28,2.88-.72.87-2.01,1-2.88.28-.87-.72-1-2.01-.28-2.88.72-.87,2.01-1,2.88-.28Z"/>
    </g>
  </g>
  <g>
    <g>
      <g>
        <path class="cls-7" d="m43.32,44.52c.08.87.93,1.49,1.89,1.4.96-.09,1.67-.87,1.58-1.74-.08-.87-.93-1.49-1.89-1.4-.96.09-1.66.87-1.58,1.74Z"/>
        <path class="cls-7" d="m42.24,43.63c.87-.08,1.5-.93,1.4-1.89-.09-.96-.87-1.67-1.74-1.58-.87.08-1.5.93-1.4,1.89.09.96.87,1.67,1.74,1.58Z"/>
      </g>
      <g>
        <path class="cls-7" d="m41.07,45.07c-.09-.87-.93-1.49-1.89-1.4-.96.09-1.67.87-1.58,1.74.08.87.93,1.49,1.89,1.4.96-.09,1.67-.87,1.58-1.74Z"/>
        <path class="cls-7" d="m42.14,45.95c-.87.08-1.49.93-1.4,1.89.09.96.87,1.67,1.74,1.58.87-.09,1.49-.93,1.4-1.89-.09-.96-.87-1.67-1.74-1.58Z"/>
      </g>
    </g>
    <g>
      <path class="cls-8" d="m42.95,45.42c-.55.67-.4,1.71.35,2.33.74.61,1.79.56,2.35-.11.55-.67.4-1.71-.34-2.33-.74-.61-1.79-.56-2.35.11Z"/>
      <path class="cls-8" d="m41.43,44.17c.55-.67.4-1.71-.34-2.33-.74-.61-1.79-.56-2.35.11-.55.67-.4,1.71.34,2.33.74.61,1.8.56,2.35-.11Z"/>
    </g>
    <path class="cls-8" d="m42.82,44.03c.67.55,1.71.4,2.33-.34.61-.74.56-1.79-.11-2.35-.67-.55-1.71-.4-2.33.34-.61.74-.56,1.79.11,2.35Z"/>
    <path class="cls-8" d="m41.57,45.55c-.67-.55-1.71-.4-2.33.34-.61.74-.56,1.79.11,2.35.67.55,1.71.4,2.33-.34.61-.74.56-1.8-.11-2.35Z"/>
    <path class="cls-9" d="m43.1,43.69c.61.5.69,1.4.2,2-.5.61-1.4.7-2,.2-.61-.5-.69-1.4-.2-2,.5-.61,1.4-.7,2-.2Z"/>
  </g>
  <g>
    <g>
      <g>
        <path class="cls-7" d="m11.28,44.52c.08.87.93,1.49,1.89,1.4.96-.09,1.66-.87,1.58-1.74-.08-.87-.93-1.49-1.89-1.4-.96.09-1.67.87-1.58,1.74Z"/>
        <path class="cls-7" d="m10.2,43.63c.87-.08,1.49-.93,1.4-1.89-.09-.96-.87-1.67-1.74-1.58-.87.08-1.5.93-1.4,1.89.09.96.87,1.67,1.74,1.58Z"/>
      </g>
      <g>
        <path class="cls-7" d="m9.03,45.07c-.09-.87-.93-1.49-1.89-1.4-.96.09-1.67.87-1.58,1.74.08.87.93,1.49,1.89,1.4.96-.09,1.67-.87,1.58-1.74Z"/>
        <path class="cls-7" d="m10.1,45.95c-.87.08-1.49.93-1.4,1.89.09.96.87,1.67,1.74,1.58.87-.09,1.49-.93,1.4-1.89-.09-.96-.87-1.67-1.74-1.58Z"/>
      </g>
    </g>
    <g>
      <path class="cls-8" d="m10.92,45.42c-.55.67-.4,1.71.34,2.33.74.61,1.8.56,2.35-.11.55-.67.4-1.71-.34-2.33-.74-.61-1.8-.56-2.35.11Z"/>
      <path class="cls-8" d="m9.39,44.17c.55-.67.4-1.71-.34-2.33-.74-.61-1.79-.56-2.35.11-.55.67-.4,1.71.34,2.33.74.61,1.8.56,2.35-.11Z"/>
    </g>
    <path class="cls-8" d="m10.78,44.03c.67.55,1.71.4,2.33-.34.61-.74.56-1.79-.11-2.35-.67-.55-1.71-.4-2.33.34-.61.74-.56,1.79.11,2.35Z"/>
    <path class="cls-8" d="m9.53,45.55c-.67-.55-1.71-.4-2.33.34-.61.74-.56,1.79.11,2.35.67.55,1.71.4,2.33-.34.61-.74.56-1.8-.11-2.35Z"/>
    <path class="cls-9" d="m11.06,43.69c.61.5.69,1.4.2,2-.5.61-1.4.7-2,.2-.61-.5-.69-1.4-.2-2,.5-.61,1.4-.7,2-.2Z"/>
  </g>
  <g>
    <g>
      <g>
        <g>
          <path class="cls-7" d="m21.89,64.32c.12,1.25,1.34,2.15,2.71,2.01,1.38-.13,2.39-1.25,2.27-2.5-.12-1.25-1.34-2.15-2.71-2.01-1.38.14-2.39,1.26-2.27,2.5Z"/>
          <path class="cls-7" d="m20.35,63.05c1.25-.12,2.15-1.34,2.01-2.71-.13-1.38-1.25-2.39-2.5-2.27-1.25.12-2.15,1.34-2.01,2.71.14,1.38,1.25,2.39,2.5,2.27Z"/>
        </g>
        <g>
          <path class="cls-7" d="m18.66,65.1c-.12-1.25-1.34-2.15-2.71-2.01-1.38.13-2.39,1.25-2.27,2.5.12,1.25,1.34,2.15,2.71,2.01s2.39-1.25,2.27-2.5Z"/>
          <path class="cls-7" d="m20.2,66.38c-1.25.12-2.15,1.34-2.01,2.71.14,1.38,1.26,2.39,2.5,2.27s2.15-1.34,2.01-2.71c-.14-1.38-1.26-2.39-2.5-2.27Z"/>
        </g>
      </g>
      <g>
        <path class="cls-8" d="m21.37,65.61c-.79.97-.57,2.46.49,3.34,1.07.88,2.58.81,3.38-.16.8-.97.57-2.47-.49-3.34-1.07-.88-2.58-.81-3.38.16Z"/>
        <path class="cls-8" d="m19.18,63.81c.79-.97.57-2.46-.5-3.34-1.07-.88-2.58-.81-3.38.16-.79.97-.57,2.47.5,3.34,1.07.88,2.58.81,3.38-.16Z"/>
      </g>
      <path class="cls-8" d="m21.17,63.62c.97.8,2.47.57,3.34-.5.88-1.07.81-2.58-.16-3.38-.97-.8-2.46-.57-3.34.5-.88,1.07-.81,2.58.16,3.38Z"/>
      <path class="cls-8" d="m19.38,65.81c-.97-.8-2.47-.57-3.34.5-.88,1.07-.81,2.58.16,3.38.97.8,2.47.57,3.34-.5.88-1.07.81-2.58-.16-3.38Z"/>
      <path class="cls-9" d="m21.57,63.13c.87.72,1,2.01.28,2.88-.72.87-2.01,1-2.88.28-.87-.72-1-2.01-.28-2.88.72-.87,2.01-1,2.88-.28Z"/>
    </g>
    <g>
      <g>
        <g>
          <path class="cls-7" d="m33.69,64.32c.12,1.25,1.34,2.15,2.71,2.01,1.38-.13,2.39-1.25,2.27-2.5-.12-1.25-1.34-2.15-2.71-2.01-1.38.14-2.39,1.26-2.27,2.5Z"/>
          <path class="cls-7" d="m32.14,63.05c1.25-.12,2.15-1.34,2.01-2.71-.14-1.38-1.26-2.39-2.5-2.27-1.25.12-2.15,1.34-2.01,2.71.14,1.38,1.26,2.39,2.5,2.27Z"/>
        </g>
        <g>
          <path class="cls-7" d="m30.45,65.1c-.12-1.25-1.34-2.15-2.71-2.01-1.38.13-2.39,1.25-2.27,2.5.12,1.25,1.34,2.15,2.71,2.01,1.38-.13,2.39-1.25,2.27-2.5Z"/>
          <path class="cls-7" d="m32,66.38c-1.25.12-2.15,1.34-2.01,2.71.14,1.38,1.26,2.39,2.5,2.27s2.15-1.34,2.01-2.71c-.14-1.38-1.26-2.39-2.5-2.27Z"/>
        </g>
      </g>
      <g>
        <path class="cls-8" d="m33.17,65.61c-.8.97-.57,2.46.49,3.34,1.07.88,2.58.81,3.37-.16.8-.97.57-2.47-.49-3.34-1.07-.88-2.58-.81-3.37.16Z"/>
        <path class="cls-8" d="m30.98,63.81c.79-.97.57-2.46-.5-3.34-1.07-.88-2.58-.81-3.37.16-.8.97-.57,2.47.49,3.34,1.07.88,2.58.81,3.38-.16Z"/>
      </g>
      <path class="cls-8" d="m32.97,63.62c.97.8,2.47.57,3.34-.5.88-1.07.81-2.58-.16-3.38-.97-.8-2.47-.57-3.34.5-.88,1.07-.81,2.58.16,3.38Z"/>
      <path class="cls-8" d="m31.17,65.81c-.97-.8-2.47-.57-3.34.5-.88,1.07-.81,2.58.16,3.38.97.8,2.47.57,3.34-.5.88-1.07.81-2.58-.16-3.38Z"/>
      <path class="cls-9" d="m33.37,63.13c.87.72,1,2.01.28,2.88-.72.87-2.01,1-2.88.28-.87-.72-1-2.01-.28-2.88s2.01-1,2.88-.28Z"/>
    </g>
  </g>
  <g>
    <g>
      <g>
        <path class="cls-7" d="m27.3,72.05c.08.87.93,1.49,1.89,1.4s1.66-.87,1.58-1.74c-.08-.87-.93-1.49-1.89-1.4-.96.09-1.67.87-1.58,1.74Z"/>
        <path class="cls-7" d="m26.22,71.16c.87-.08,1.49-.93,1.4-1.89-.09-.96-.87-1.67-1.74-1.58-.87.09-1.5.93-1.4,1.89.09.96.87,1.67,1.74,1.58Z"/>
      </g>
      <g>
        <path class="cls-7" d="m25.05,72.59c-.09-.87-.93-1.49-1.89-1.4-.96.09-1.67.87-1.58,1.74.08.87.93,1.49,1.89,1.4.96-.09,1.67-.87,1.58-1.74Z"/>
        <path class="cls-7" d="m26.12,73.48c-.87.08-1.49.93-1.4,1.89.09.96.87,1.67,1.74,1.58.87-.08,1.49-.93,1.4-1.89-.09-.96-.87-1.67-1.74-1.58Z"/>
      </g>
    </g>
    <g>
      <path class="cls-8" d="m26.94,72.94c-.55.67-.4,1.71.34,2.33.74.61,1.79.56,2.35-.11.55-.67.4-1.71-.34-2.33-.74-.61-1.8-.56-2.35.11Z"/>
      <path class="cls-8" d="m25.41,71.69c.55-.67.4-1.71-.34-2.33-.74-.61-1.79-.56-2.35.11-.55.67-.4,1.71.34,2.33.74.61,1.8.56,2.35-.11Z"/>
    </g>
    <path class="cls-8" d="m26.8,71.56c.67.55,1.71.4,2.33-.34.61-.74.56-1.8-.11-2.35-.67-.55-1.71-.4-2.33.34-.61.74-.56,1.79.11,2.35Z"/>
    <path class="cls-8" d="m25.55,73.08c-.67-.55-1.71-.4-2.33.34-.61.74-.56,1.8.11,2.35.67.55,1.71.4,2.33-.34.61-.74.56-1.79-.11-2.35Z"/>
    <path class="cls-9" d="m27.08,71.22c.61.5.69,1.4.2,2-.5.61-1.4.7-2,.2-.61-.5-.69-1.4-.2-2,.5-.61,1.4-.69,2-.2Z"/>
  </g>
  <g>
    <polygon class="cls-6" points="25.92 13.48 32.56 13.48 52.35 71.37 44.22 76.91 25.92 13.48"/>
    <polygon class="cls-3" points="26.43 13.48 19.79 13.48 0 71.37 8.12 76.91 26.43 13.48"/>
  </g>
  <g>
    <g>
      <path class="cls-2" d="m23.7,7.76l-6.08-2.43c-1.22-.49-2.4,1.08-2.4,2.4v7.1c0,1.32,1.17,2.88,2.4,2.4l6.08-2.43c1.22-.49,2.4-1.08,2.4-2.4v-2.25c0-1.32-1.17-1.91-2.4-2.4Z"/>
      <path class="cls-3" d="m28.65,7.76l6.09-2.43c1.22-.49,2.4,1.08,2.4,2.4v7.1c0,1.32-1.17,2.88-2.4,2.4l-6.09-2.43c-1.22-.49-2.4-1.08-2.4-2.4v-2.25c0-1.32,1.17-1.91,2.4-2.4Z"/>
    </g>
    <rect class="cls-1" x="21.94" y="6.88" width="8.47" height="8.47" rx="1.63" ry="1.63"/>
    <path class="cls-2" d="m26.17,6.88h2.61c.89,0,1.63.73,1.63,1.63v5.22c0,.89-.73,1.63-1.63,1.63h-2.61V6.88Z"/>
  </g>
</svg>