<?xml version="1.0" encoding="UTF-8"?>
<svg id="Layer_1" data-name="Layer 1" xmlns="http://www.w3.org/2000/svg" viewBox="0 0 76.98 82">
  <defs>
    <style>
      .cls-1 {
        fill: #292929;
      }

      .cls-1, .cls-2, .cls-3, .cls-4, .cls-5, .cls-6, .cls-7, .cls-8, .cls-9 {
        fill-rule: evenodd;
      }

      .cls-2 {
        fill: #4f4f4f;
      }

      .cls-3 {
        fill: #1f1f1f;
      }

      .cls-4 {
        fill: #cdf2fa;
      }

      .cls-5 {
        fill: #b87000;
      }

      .cls-6 {
        fill: #b87814;
      }

      .cls-7 {
        fill: #f0f0f0;
      }

      .cls-8 {
        fill: #fff;
      }

      .cls-9 {
        fill: #ff9c00;
      }
    </style>
  </defs>
  <path class="cls-9" d="m38.4,62.46h-14.53c-4.76-1.94-9.04-4.79-12.63-8.35.22-14.08,15.75-5.9,19.4-15.94.69-1.89.72-4.85.28-6.8l7.48.14,7.48-.14c-.44,1.95-.41,4.91.28,6.8,3.66,10.05,19.18,1.86,19.4,15.94-3.59,3.56-7.88,6.41-12.63,8.35h-14.53Z"/>
  <path class="cls-6" d="m38.4,62.46h14.53c4.76-1.94,9.04-4.79,12.63-8.35-.22-14.08-15.75-5.9-19.4-15.94-.69-1.89-.72-4.85-.28-6.8l-7.48.14v30.95Z"/>
  <path class="cls-9" d="m38.6,35.9s-.09,0-.13,0c-1.57.01-2.35-.02-3.21-.38-.82-.35-1.23-1.16-2.36-2.25-.97-.93-2.7-1.88-3.12-2.89-.51-1.23-.39-2.58-.61-4.37-.9.49-1.86-2.07-2.05-2.91-.28-1.24-1.17-3.35-1.45-4.77-.16-.81-.06-1.46.21-1.66.6-.44,1.21-.18,2.12,1.08-.05-1.79-.08-3.3.15-4.6,1.24-7.09,18.57-11.07,20.52-.03.23,1.3.21,2.82.16,4.61.9-1.24,1.51-1.5,2.1-1.06.27.2.37.85.21,1.66-.28,1.42-1.17,3.53-1.45,4.77-.19.83-1.13,3.35-2.02,2.93-.2,1.74-.09,3.05-.59,4.26-.42,1.02-2.14,1.98-3.1,2.92-1.13,1.11-1.53,1.92-2.35,2.28-.82.36-1.57.41-3.03.41Z"/>
  <path class="cls-5" d="m38.59,35.9s-.09,0-.13,0h-.07s0-29.6,0-29.6c4.65-.41,9.31,1.39,10.26,6.81.23,1.3.21,2.82.16,4.61.89-1.24,1.51-1.5,2.1-1.06.27.2.37.85.21,1.66-.28,1.42-1.17,3.53-1.45,4.77-.19.83-1.13,3.35-2.01,2.93-.2,1.74-.09,3.05-.59,4.26-.42,1.02-2.14,1.98-3.1,2.92-1.13,1.11-1.53,1.92-2.35,2.28-.82.36-1.58.41-3.03.41Z"/>
  <path class="cls-2" d="m30.53,11.38c-1.47,1.76-1.82,8.62-1.72,11.01-2.49-9.02-3.82-15.46,1.57-19.51,7.08-5.32,15.04-2.03,16.32.14,5.2,2.87,3.39,10.96,1.83,18.11-.04-2.75-1.34-9.32-2.36-12.1-3.96-2.49-11.92-2.03-15.65,2.35Z"/>
  <path class="cls-1" d="m38.4,0c4.13-.12,7.51,1.66,8.31,3.01,5.2,2.87,3.39,10.96,1.83,18.11-.04-2.75-1.34-9.32-2.36-12.1-3.19-1.4-3.5-1.57-7.78-1.45V0Z"/>
  <path class="cls-8" d="m35.23,39.08c2.47.47,4.24.51,6.57-.06l-.16,4.43s-3.07,2.03-3.22,2.03-3.01-1.87-3.01-1.87l-.17-4.53Z"/>
  <path class="cls-7" d="m38.4,39.44c1.1.01,2.17-.12,3.4-.42l-.16,4.43s-3.07,2.03-3.22,2.03h-.01v-6.05Z"/>
  <path class="cls-2" d="m35.95,39.27c-.07-.03-.14-.05-.22-.08l-6.15-1.64-.23,1.85c-3.65,3.23-10.07,2.84-14.99,5.47-2.93,1.57-3.86,3.51-5.14,7.18L0,78.5h66.48c-.14-8.87,1.83-26.44-.68-30.11-4.6-6.75-13.62-4.79-18.35-8.98l-.23-1.85c-1.08.06-5.07,3.04-6.15,3.1-.08,0-.15.02-.22.03v2.22h-4.9v-3.63Z"/>
  <path class="cls-1" d="m40.85,39.27c.07-.03.14-.05.22-.08l6.15-1.64.23,1.85c3.65,3.23,10.07,2.84,14.99,5.47,2.93,1.57,3.86,3.51,5.14,7.18l9.22,26.44h-38.4v-35.59h2.45v-3.63Z"/>
  <g>
    <polygon class="cls-1" points="19.92 59.74 13.75 78.5 17.34 78.5 19.92 59.74"/>
    <polygon class="cls-3" points="56.87 59.74 63.04 78.5 59.45 78.5 56.87 59.74"/>
  </g>
  <polygon class="cls-4" points="22.29 58.35 37.43 51.49 47.21 73.92 32.06 80.78 22.29 58.35"/>
  <g>
    <path class="cls-9" d="m38.24,70.13l-1.35-.44c-3.6-.04-5.73.09-9.24-.77-.77-.19-1.38-.49-2.11-.05-.81.49-.84,1.56.43,2.28-.82.55-.9,1.67.23,2.3-.58.82-.39,1.84,1.12,2.45-1.13.37-.71,1.27.17,1.74,1.11.6,2.85,1.25,3.05,1.33,2.78.07,5.01-.44,7.62-1.18l1.2-5.52-1.12-2.14Z"/>
    <path class="cls-9" d="m38.24,70.4c-1.34-.88-1.68-2.73-2.46-4.07-.57-.97-1.17-1.09-3.15-2.37-.79-.69-1.42-1.32-2.28-2.26-2.54,2.88,2.7,3.68,1.87,6.06-.21.61-.91,1.07-1.81,1.91l1.83,1.45,6-.71Z"/>
  </g>
  <path class="cls-1" d="m37.97,68.3l31.87,2.11c9.27.55,9.8,12.16-.15,11.57l-31.73-2.1v-11.58Z"/>
</svg>